<?xml version="1.0" encoding="UTF-8"?>
<svg version="1.1" xmlns="http://www.w3.org/2000/svg" width="320" height="320">
<path d="M0 0 C0.82250189 -0.00594224 1.64500378 -0.01188449 2.49242997 -0.0180068 C5.25836086 -0.03539947 8.02411881 -0.0383988 10.7901001 -0.04138184 C12.76931123 -0.05063694 14.74851879 -0.06068609 16.72772217 -0.07147217 C22.11213895 -0.0977376 27.49650583 -0.11061358 32.88097668 -0.11949348 C36.24414684 -0.12535251 39.60730333 -0.13356168 42.97046661 -0.14250183 C53.49061068 -0.16985711 64.01072354 -0.18918745 74.53090072 -0.19690561 C86.67932533 -0.20586697 98.82729986 -0.24096073 110.97558761 -0.2989068 C120.36252573 -0.34212874 129.74933718 -0.36231355 139.13637376 -0.36498785 C144.74430775 -0.36708491 150.35181882 -0.37891958 155.95964813 -0.41462708 C161.23588177 -0.44756877 166.51137417 -0.45191015 171.78767395 -0.43434906 C173.72305027 -0.43280716 175.65846627 -0.44150949 177.59374237 -0.46126556 C180.2391585 -0.48668479 182.88194527 -0.47497027 185.52734375 -0.45410156 C186.29087906 -0.47021437 187.05441436 -0.48632718 187.8410871 -0.50292826 C193.1279963 -0.40557379 195.80756845 1.15729743 199.64568734 4.76050138 C203.45552836 8.98252666 203.29332767 13.56833735 203.21295166 18.98791504 C203.21012177 19.71330978 203.20729187 20.43870453 203.20437622 21.18608093 C203.19323715 23.48868747 203.16814482 25.79089606 203.14263916 28.09338379 C203.13260122 29.66043544 203.12347679 31.22749322 203.11529541 32.79455566 C203.09502516 36.62360604 203.05586626 40.45180275 203.01763916 44.28088379 C209.28763916 44.28088379 215.55763916 44.28088379 222.01763916 44.28088379 C222.01763916 124.80088379 222.01763916 205.32088379 222.01763916 288.28088379 C182.97451416 288.46650879 143.93138916 288.65213379 103.70513916 288.84338379 C91.35938477 288.90469482 79.01363037 288.96600586 66.29376221 289.0291748 C51.2633667 289.09716797 51.2633667 289.09716797 44.23573303 289.12767029 C39.30834977 289.14940759 34.38098954 289.17400579 29.45362854 289.20030212 C23.17783632 289.23370241 16.90203986 289.26229565 10.6262089 289.28733432 C8.31713684 289.29737892 6.00807151 289.30914499 3.69901788 289.32278359 C0.59129067 289.34089804 -2.5163994 289.35284449 -5.62416077 289.36317444 C-6.99389431 289.37337821 -6.99389431 289.37337821 -8.39129925 289.38378811 C-9.22309767 289.38528173 -10.05489609 289.38677536 -10.91190052 289.38831425 C-11.63071111 289.39173173 -12.34952169 289.39514921 -13.09011441 289.39867026 C-14.98236084 289.28088379 -14.98236084 289.28088379 -17.98236084 288.28088379 C-17.98236084 287.62088379 -17.98236084 286.96088379 -17.98236084 286.28088379 C-18.84861084 285.97150879 -18.84861084 285.97150879 -19.73236084 285.65588379 C-23.41356322 283.40626011 -25.51184529 280.09907281 -26.58854675 275.93843079 C-27.00790572 273.10850111 -27.10234388 270.4333687 -27.09588623 267.57263184 C-27.0958107 266.45184738 -27.09573517 265.33106293 -27.09565735 264.17631531 C-27.09049606 262.97719009 -27.08533478 261.77806488 -27.08001709 260.54260254 C-27.07860214 259.30669876 -27.07718719 258.07079498 -27.07572937 256.79743958 C-27.07108702 253.52430034 -27.06211395 250.25121092 -27.05102539 246.97808838 C-27.04076488 243.63306131 -27.03630715 240.28803206 -27.03118896 236.94299316 C-27.02016991 230.38893729 -27.0034392 223.83491461 -26.98236084 217.28088379 C-27.51716064 217.61410645 -28.05196045 217.9473291 -28.60296631 218.29064941 C-31.01826499 219.79200874 -33.43773151 221.28651484 -35.85736084 222.78088379 C-36.69911865 223.30553223 -37.54087646 223.83018066 -38.40814209 224.37072754 C-39.21380615 224.8670166 -40.01947021 225.36330566 -40.84954834 225.87463379 C-41.96499023 226.56589355 -41.96499023 226.56589355 -43.10296631 227.27111816 C-44.98236084 228.28088379 -44.98236084 228.28088379 -46.98236084 228.28088379 C-47.47736084 229.27088379 -47.47736084 229.27088379 -47.98236084 230.28088379 C-49.9879056 228.27533902 -49.16057819 224.21277481 -49.17663574 221.46310425 C-49.18525139 220.6341441 -49.19386704 219.80518396 -49.20274377 218.95110381 C-49.23032016 216.15138459 -49.25046111 213.3516629 -49.27044678 210.55187988 C-49.28815866 208.55326082 -49.30616058 206.5546443 -49.32443237 204.55603027 C-49.48358808 186.29330496 -49.56779685 168.02981767 -49.63442612 149.76654625 C-49.6846888 136.25976015 -49.770646 122.7541866 -49.90304732 109.24795091 C-49.99294308 99.75917707 -50.04085644 90.27073663 -50.05800462 80.78155577 C-50.06948517 75.11049733 -50.09992444 69.44098832 -50.17595673 63.77039719 C-50.24675044 58.43303967 -50.26564924 53.09800087 -50.24483871 47.76023865 C-50.24626779 45.802199 -50.26652685 43.84406809 -50.30707932 41.88644791 C-50.59805626 27.07822158 -50.59805626 27.07822158 -46.57791901 22.60612583 C-43.76403493 20.78584944 -41.0964616 19.49791268 -37.98236084 18.28088379 C-36.73967581 17.56424478 -35.50998375 16.82394534 -34.30267334 16.04919434 C-33.24822021 15.42826904 -32.19376709 14.80734375 -31.10736084 14.16760254 C-30.53074707 13.8271138 -29.9541333 13.48662506 -29.36004639 13.13581848 C-27.56851834 12.07824147 -25.77555523 11.02313245 -23.98236084 9.96838379 C-22.16082949 8.89540382 -20.33962802 7.82187219 -18.51898193 6.74739075 C-16.88897115 5.78563072 -15.25796185 4.82556358 -13.62689209 3.86560059 C-8.63568419 0.87465427 -5.78665861 -0.01298203 0 0 Z " fill="#39A5CC" transform="translate(72.98236083984375,15.7191162109375)"/>
<path d="M0 0 C6.6 0 13.2 0 20 0 C20 80.52 20 161.04 20 244 C-19.043125 244.185625 -58.08625 244.37125 -98.3125 244.5625 C-110.65825439 244.62381104 -123.00400879 244.68512207 -135.72387695 244.74829102 C-150.75427246 244.81628418 -150.75427246 244.81628418 -157.78190613 244.8467865 C-162.70928939 244.8685238 -167.63664962 244.893122 -172.56401062 244.91941833 C-178.83980284 244.95281862 -185.1155993 244.98141186 -191.39143026 245.00645053 C-193.70050232 245.01649513 -196.00956765 245.0282612 -198.31862128 245.0418998 C-201.42634849 245.06001425 -204.53403856 245.0719607 -207.64179993 245.08229065 C-208.55495563 245.08909316 -209.46811132 245.09589567 -210.40893841 245.10290432 C-211.24073683 245.10439795 -212.07253525 245.10589157 -212.92953968 245.10743046 C-213.64835027 245.11084794 -214.36716085 245.11426542 -215.10775357 245.11778647 C-217 245 -217 245 -220 244 C-220 243.34 -220 242.68 -220 242 C-220.5775 241.79375 -221.155 241.5875 -221.75 241.375 C-225.42853063 239.12700906 -227.53086157 235.82192615 -228.602005 231.66207886 C-229.02763857 228.81513319 -229.15107196 226.09777767 -229.18041992 223.21923828 C-229.19260056 222.08100616 -229.20478119 220.94277405 -229.21733093 219.77005005 C-229.23331651 215.2683542 -229.23495721 210.76691429 -229.20910168 206.26524544 C-229.18969976 202.85382459 -229.18967298 199.44490064 -229.23657227 196.03369141 C-229.29041128 192.08678786 -229.26296118 188.14249086 -229.23046875 184.1953125 C-229.27037178 182.37001511 -229.27037178 182.37001511 -229.31108093 180.50784302 C-229.14917488 172.2694455 -229.14917488 172.2694455 -226.04312134 168.83831787 C-223.43832478 166.97162719 -220.83330947 165.50098561 -218 164 C-217.3840799 163.50529016 -216.76815979 163.01058033 -216.13357544 162.50087929 C-207.53866527 156.10536366 -197.98970874 157.20050751 -187.77099609 157.31884766 C-185.72028656 157.3205419 -183.66957339 157.3195866 -181.61886597 157.31619263 C-176.07385844 157.31447644 -170.52963522 157.34966595 -164.9848094 157.39163637 C-159.18194053 157.42923299 -153.37905219 157.43267579 -147.57608032 157.43978882 C-136.59729074 157.45841137 -125.61886114 157.50761359 -114.64022982 157.56788576 C-99.7978239 157.647595 -84.95531901 157.67989839 -70.11275291 157.71489906 C-46.74156583 157.77125757 -23.37113825 157.89080797 0 158 C0 105.86 0 53.72 0 0 Z " fill="#36687F" transform="translate(275,60)"/>
<path d="M0 0 C11.88 0 23.76 0 36 0 C40.5 15.75 40.5 15.75 42.10644531 22.29052734 C42.28259369 23.00458237 42.45874207 23.71863739 42.64022827 24.45433044 C43.20531968 26.74760276 43.76677802 29.04174607 44.328125 31.3359375 C44.7257444 32.95266232 45.12359627 34.56932997 45.52166748 36.1859436 C46.55634197 40.39050881 47.58790914 44.59583005 48.61877441 48.80133057 C49.67622206 53.11281721 50.73668489 57.42356207 51.796875 61.734375 C53.8674927 70.15553723 55.93481996 78.57750261 58 87 C59.45392201 84.17712546 60.44344994 81.64406304 61.1484375 78.54296875 C61.34679199 77.68606445 61.54514648 76.82916016 61.74951172 75.94628906 C61.95592285 75.03588867 62.16233398 74.12548828 62.375 73.1875 C62.82147394 71.26919489 63.26939625 69.35122632 63.71875 67.43359375 C64.04746094 66.02956299 64.04746094 66.02956299 64.3828125 64.59716797 C66.24805908 56.74808052 68.43694491 48.9852789 70.62890625 41.22265625 C71.23189474 39.08597246 71.83475611 36.9492528 72.4375 34.8125 C72.73849609 33.74668701 73.03949219 32.68087402 73.34960938 31.58276367 C75.54371015 23.76183696 77.58253546 15.91245145 79.48999023 8.0168457 C80.90490326 2.19019347 80.90490326 2.19019347 82 0 C93.22 0 104.44 0 116 0 C116 36.96 116 73.92 116 112 C107.42 112 98.84 112 90 112 C89.67 88.9 89.34 65.8 89 42 C87.02 50.58 85.04 59.16 83 68 C81 75.1875 81 75.1875 80.0703125 78.296875 C78.28602965 84.4702332 76.71048245 90.69868017 75.10546875 96.9206543 C74.86183594 97.86336182 74.61820312 98.80606934 74.3671875 99.77734375 C74.15175293 100.61515381 73.93631836 101.45296387 73.71435547 102.31616211 C72.85208341 105.55572353 71.92096223 108.77663221 71 112 C62.09 112 53.18 112 44 112 C42.948125 107.936875 41.89625 103.87375 40.8125 99.6875 C39.84151966 95.9439911 38.86960783 92.20072563 37.89746094 88.45751953 C37.3556497 86.37016078 36.81444873 84.2826433 36.27441406 82.19482422 C36.06268555 81.37643066 35.85095703 80.55803711 35.6328125 79.71484375 C35.45766113 79.03671631 35.28250977 78.35858887 35.10205078 77.65991211 C32.231745 66.71120345 29.11370049 55.89795171 26 45 C25.67 67.44 25.34 89.88 25 113 C16.75 113 8.5 113 0 113 C0 75.71 0 38.42 0 0 Z " fill="#FBFDFD" transform="translate(113,61)"/>
<path d="M0 0 C0.21017256 26.23372313 0.36891573 52.46732024 0.46630955 78.70171547 C0.51273184 90.88264725 0.57602926 103.06305616 0.67895508 115.24365234 C0.76861504 125.85937576 0.82671324 136.47472056 0.84679645 147.09081209 C0.85853778 152.71303253 0.8861595 158.33416976 0.95157051 163.95604324 C1.01263501 169.24718656 1.03150983 174.53680011 1.01796913 179.82826233 C1.02044635 181.77057076 1.03836688 183.71293003 1.07284927 185.65493393 C1.32113033 200.3583268 1.32113033 200.3583268 -1.96917915 204.44695663 C-4.2809105 206.01692421 -6.38780187 207.03557009 -9 208 C-10.45212891 208.92619141 -10.45212891 208.92619141 -11.93359375 209.87109375 C-12.75988281 210.38800781 -13.58617188 210.90492188 -14.4375 211.4375 C-18.05112768 213.72244006 -21.57915366 216.08375511 -25.0625 218.5625 C-38.40738122 228 -38.40738122 228 -42 228 C-42.495 228.99 -42.495 228.99 -43 230 C-45.00554476 227.99445524 -44.17821735 223.93189102 -44.1942749 221.18222046 C-44.20289055 220.35326031 -44.2115062 219.52430017 -44.22038293 218.67022002 C-44.24795932 215.8705008 -44.26810027 213.07077911 -44.28808594 210.27099609 C-44.30579782 208.27237703 -44.32379974 206.27376051 -44.34207153 204.27514648 C-44.50122724 186.01242117 -44.58543601 167.74893388 -44.65206528 149.48566246 C-44.70232796 135.97887636 -44.78828516 122.47330281 -44.92068648 108.96706712 C-45.01058224 99.47829328 -45.0584956 89.98985284 -45.07564378 80.50067198 C-45.08712433 74.82961354 -45.1175636 69.16010453 -45.19359589 63.4895134 C-45.2643896 58.15215588 -45.2832884 52.81711708 -45.26247787 47.47935486 C-45.26390695 45.52131522 -45.28416601 43.5631843 -45.32471848 41.60556412 C-45.61569542 26.79733779 -45.61569542 26.79733779 -41.59555817 22.32524204 C-38.78167409 20.50496565 -36.11410076 19.21702889 -33 18 C-31.75731497 17.28336099 -30.52762291 16.54306155 -29.3203125 15.76831055 C-28.26585937 15.14738525 -27.21140625 14.52645996 -26.125 13.88671875 C-25.54838623 13.54623001 -24.97177246 13.20574127 -24.37768555 12.85493469 C-22.5861575 11.79735769 -20.79319439 10.74224867 -19 9.6875 C-17.17846865 8.61452003 -15.35726718 7.5409884 -13.53662109 6.46650696 C-11.90661031 5.50474693 -10.27560101 4.54467979 -8.64453125 3.5847168 C-2.66245571 0 -2.66245571 0 0 0 Z " fill="#7EC4DD" transform="translate(68,16)"/>
<path d="M0 0 C4.95 0 9.9 0 15 0 C16.71619335 5.47873426 18.42498065 10.9597024 20.12695312 16.44287109 C20.70695387 18.30776163 21.28897155 20.17202612 21.87304688 22.03564453 C22.71234998 24.7148485 23.54436819 27.3962219 24.375 30.078125 C24.63748535 30.91055725 24.8999707 31.7429895 25.17041016 32.60064697 C25.41065918 33.38115417 25.6509082 34.16166138 25.8984375 34.96582031 C26.11161621 35.64976868 26.32479492 36.33371704 26.54443359 37.03839111 C27 39 27 39 27 43 C23.37 43 19.74 43 16 43 C15.34 40.36 14.68 37.72 14 35 C9.71 35 5.42 35 1 35 C0.34 37.64 -0.32 40.28 -1 43 C-4.63 43 -8.26 43 -12 43 C-9.63686304 33.15114971 -7.03735537 23.37980041 -4.3125 13.625 C-4.00304443 12.51326416 -3.69358887 11.40152832 -3.37475586 10.25610352 C-3.08221924 9.21510498 -2.78968262 8.17410645 -2.48828125 7.1015625 C-2.22571533 6.16650879 -1.96314941 5.23145508 -1.69262695 4.26806641 C-1 2 -1 2 0 0 Z " fill="#F4F6F8" transform="translate(198,238)"/>
<path d="M0 0 C4.95 0 9.9 0 15 0 C21.77008113 21.05163556 21.77008113 21.05163556 24.9375 31.625 C25.14850342 32.31585693 25.35950684 33.00671387 25.5769043 33.71850586 C26.54947064 37.00674564 27 39.52714796 27 43 C23.37 43 19.74 43 16 43 C15.67 40.03 15.34 37.06 15 34 C10.38 34 5.76 34 1 34 C0.34 36.97 -0.32 39.94 -1 43 C-4.3 43 -7.6 43 -11 43 C-10.33672566 37.56403419 -9.1745168 32.40896983 -7.75 27.125 C-7.53255127 26.30797607 -7.31510254 25.49095215 -7.09106445 24.64916992 C-4.87335921 16.3898281 -2.46396254 8.1887436 0 0 Z " fill="#F4F7F8" transform="translate(129,238)"/>
<path d="M0 0 C3.63 0 7.26 0 11 0 C13.31 5.28 15.62 10.56 18 16 C18.94875 14.1025 19.8975 12.205 20.875 10.25 C23.4375 5.125 23.4375 5.125 26 0 C29.63 0 33.26 0 37 0 C35.63811603 3.40470993 34.52235151 5.95892226 32.65234375 8.9765625 C25.83569916 20.50350102 23.49105586 29.63273192 24 43 C20.37 43 16.74 43 13 43 C13.05542969 41.94425781 13.11085937 40.88851562 13.16796875 39.80078125 C13.3861869 26.54099785 8.87699795 17.31164044 2.10742188 6.09619141 C1 4 1 4 0 0 Z " fill="#F4F6F8" transform="translate(153,238)"/>
<path d="M0 0 C1.68900014 3.10629156 2.70626667 6.15205051 3.625 9.5625 C3.88539063 10.51253906 4.14578125 11.46257812 4.4140625 12.44140625 C5 15 5 15 5 18 C2.03 18 -0.94 18 -4 18 C-3.67544172 15.99855726 -3.33882656 13.99907671 -3 12 C-2.84273437 11.071875 -2.68546875 10.14375 -2.5234375 9.1875 C-2.35070312 8.1975 -2.17796875 7.2075 -2 6.1875 C-1.835 5.23230469 -1.67 4.27710938 -1.5 3.29296875 C-1 1 -1 1 0 0 Z " fill="#568093" transform="translate(205,246)"/>
<path d="M0 0 C1.85329634 2.77994451 2.68563605 4.78256551 3.625 7.9375 C3.88539063 8.79214844 4.14578125 9.64679688 4.4140625 10.52734375 C5 13 5 13 5 17 C2.03 17 -0.94 17 -4 17 C-2.91103333 11.24237834 -1.70663707 5.60752181 0 0 Z " fill="#537E91" transform="translate(136,247)"/>
</svg>
